<svg width="317" height="347" viewBox="0 0 317 347" fill="none" xmlns="http://www.w3.org/2000/svg">
<circle cx="158.5" cy="188.25" r="158.5" fill="url(#paint0_radial_1_36)"/>
<path d="M41.9746 33.9301L36 113.385C36 113.385 117.965 308.469 109.999 308.469L129.211 316.992L59.9764 113.348L42.0136 33.8929L41.9746 33.9301Z" fill="#03899E"/>
<path d="M156.468 311.074L167.793 286.549L103.869 73.639L41.9752 33.93L87.8974 119.079L156.468 311.074Z" fill="#0E3D5B"/>
<path d="M83.5629 98.6479L41.9752 33.93L59.938 113.385L130.891 326.072L156.468 311.074L83.5629 98.6479Z" fill="#06768D"/>
<path d="M129.602 78.5888L203.484 0.25L190.48 98.5736L129.602 78.5888Z" fill="#0CE4E7"/>
<path d="M140.575 279.367C144.558 280.334 181.499 304.115 181.499 304.115L189.387 93.847L129.602 78.5886L140.575 279.367Z" fill="#08637D"/>
<path d="M149.713 263.886C149.713 263.886 146.16 108.622 156.469 110.036C166.778 111.451 173.143 276.464 173.143 276.464L149.713 263.848V263.886Z" fill="#06768D"/>
<path d="M206.452 304.114L232.42 98.5728L189.388 93.8464L181.5 304.114H206.452Z" fill="#102A4B"/>
<path d="M223.008 286.326L206.451 304.115L232.419 98.5737L252.373 87.5951L223.008 286.326Z" fill="#08637D"/>
<path d="M232.42 98.5736L203.485 0.25L189.388 93.8472L232.42 98.5736Z" fill="#08637D"/>
<path d="M252.373 87.595L203.483 0.25L232.419 98.5736L252.373 87.595Z" fill="#0E3D5B"/>
<path d="M237.808 189.677L295.523 162.807L260.691 214.5L237.808 189.677Z" fill="#08637D"/>
<path d="M261.549 211.597L196.454 326.556C196.454 326.556 185.989 305.045 184.388 303.594L237.846 189.64L261.589 211.56L261.549 211.597Z" fill="#0B506C"/>
<path d="M261.551 211.597L196.455 326.556C193.253 320.117 188.723 310.106 187.708 309.213L242.494 193.956L261.551 211.559V211.597Z" fill="#102A4B"/>
<path d="M208.169 332.213L280.449 223.916L261.549 211.597L196.415 326.594L208.169 332.213Z" fill="#0B506C"/>
<path d="M221.172 326.034L208.169 332.212L280.45 223.915L293.063 222.314L221.172 326.034Z" fill="#08637D"/>
<path d="M280.45 223.915L295.523 162.807L261.55 211.597L280.45 223.915Z" fill="#03899E"/>
<path d="M293.062 222.315L295.522 162.807L280.449 223.915L293.062 222.315Z" fill="#06768D"/>
<path d="M40.7239 256.627L37.2485 199.39L72.0416 243.565L40.7239 256.627Z" fill="#0E3D5B"/>
<path d="M122.455 326.592C124.368 325.588 151.664 329.681 151.664 329.681L69.6988 242.076L40.7241 256.664L122.455 326.592Z" fill="#03899E"/>
<path d="M161.192 321.011L88.0129 229.051L69.6987 242.076L151.664 329.682L161.192 321.011Z" fill="#0B506C"/>
<path d="M160.294 308.097L161.192 321.01L88.0137 229.051L91.2158 217.663L160.294 308.097Z" fill="#0E3D5B"/>
<path d="M88.0128 229.051C58.1009 212.415 69.6596 219.114 37.2485 199.39L72.0416 243.602L88.0519 229.051H88.0128Z" fill="#08637D"/>
<path d="M91.2149 217.663L37.2485 199.39L88.0128 229.051L91.2149 217.663Z" fill="#03899E"/>
<path d="M131.593 213.793L126.282 285.768H152.875L173.141 263.885V233.442L153.265 222.501L131.593 213.793Z" fill="#03899E"/>
<path d="M113.279 250.562L131.593 213.793L126.283 285.768L113.279 250.562Z" fill="#0B506C"/>
<path d="M147.252 329.049L126.282 285.768L131.593 213.793L155.725 285.768L163.106 339.209L147.252 329.049Z" fill="#08637D"/>
<path d="M187.668 322.872L173.141 263.885L154.905 283.572L163.106 339.209L187.668 322.872Z" fill="#0B506C"/>
<path d="M190.987 306.46L187.668 322.872L173.141 263.885V233.443L190.987 306.46Z" fill="#102A4B"/>
<path d="M103.869 73.6392L83.5629 98.648L41.9752 33.9301L103.869 73.6392Z" fill="#03899E"/>
<path d="M58.883 108.658L101.876 221.496L72.0427 103.299L58.883 108.658Z" fill="#0CE4E7"/>
<path d="M213.987 240.476L238.432 95.2984L232.418 98.5734L213.987 240.476Z" fill="#0CE4E7"/>
<path d="M126.282 285.767L129.172 243.565L129.601 285.767L136.513 306.906L126.282 285.767Z" fill="#0CE4E7"/>
<path d="M40.7243 256.628L141.433 328.231L122.455 326.593L40.7243 256.628Z" fill="#0CE4E7"/>
<path d="M280.449 223.916L250.108 269.356L287.986 222.985L280.449 223.916Z" fill="#03899E"/>
<path d="M36 113.385L58.883 108.659L41.9746 33.9301L36 113.385Z" fill="#0B506C"/>
<path d="M198.837 93.8471C190.442 94.4053 189.973 94.8519 189.387 102.853C188.801 94.8519 188.333 94.4053 179.937 93.8471C188.333 93.2889 188.801 92.8423 189.387 84.8409C189.973 92.8423 190.442 93.2889 198.837 93.8471Z" fill="#B0E8EC"/>
<path d="M92.0357 78.5882C83.64 79.1464 83.1715 79.5931 82.5857 87.5944C82 79.5931 81.5314 79.1464 73.1357 78.5882C81.5314 78.03 82 77.5834 82.5857 69.582C83.1715 77.5834 83.64 78.03 92.0357 78.5882Z" fill="#B0E8EC"/>
<path d="M164.59 285.769C155.921 286.327 155.453 286.811 154.867 295.035C154.281 286.773 153.774 286.327 145.144 285.769C153.813 285.21 154.281 284.727 154.867 276.502C155.453 284.764 155.96 285.21 164.59 285.769Z" fill="#B0E8EC"/>
<path d="M78.4471 243.565C69.7781 244.123 69.3095 244.607 68.7238 252.832C68.1381 244.57 67.6304 244.123 59.0005 243.565C67.6695 243.007 68.1381 242.523 68.7238 234.298C69.3095 242.56 69.8172 243.007 78.4471 243.565Z" fill="#B0E8EC"/>
<path style="mix-blend-mode:color-dodge" d="M172.556 328.119C219.765 328.119 258.036 291.646 258.036 246.654C258.036 201.663 219.765 165.19 172.556 165.19C125.347 165.19 87.0769 201.663 87.0769 246.654C87.0769 291.646 125.347 328.119 172.556 328.119Z" fill="url(#paint1_radial_1_36)"/>
<path style="mix-blend-mode:color-dodge" d="M227.07 118.298C217.62 162.398 191.027 194.441 167.676 189.901C144.324 185.36 133.078 145.912 142.528 101.849C151.978 57.7482 178.571 25.7056 201.922 30.2459C225.274 34.7862 236.52 74.2347 227.07 118.298Z" fill="url(#paint2_radial_1_36)"/>
<defs>
<radialGradient id="paint0_radial_1_36" cx="0" cy="0" r="1" gradientUnits="userSpaceOnUse" gradientTransform="translate(158.5 188.25) rotate(90) scale(158.5)">
<stop offset="0.012704" stop-color="#B2C5CB"/>
<stop offset="0.205419" stop-color="#5E95A7"/>
<stop offset="0.48147" stop-color="#6B9DAC" stop-opacity="0.888655"/>
<stop offset="1" stop-color="#80A0AA" stop-opacity="0"/>
</radialGradient>
<radialGradient id="paint1_radial_1_36" cx="0" cy="0" r="1" gradientUnits="userSpaceOnUse" gradientTransform="translate(172.556 246.654) scale(85.4794 81.4649)">
<stop stop-color="#025663"/>
<stop offset="1"/>
</radialGradient>
<radialGradient id="paint2_radial_1_36" cx="0" cy="0" r="1" gradientUnits="userSpaceOnUse" gradientTransform="translate(185.557 110.201) rotate(11.0307) scale(42.6609 81.6154)">
<stop stop-color="#025663"/>
<stop offset="1"/>
</radialGradient>
</defs>
</svg>
