<svg width="31" height="31" viewBox="0 0 31 31" fill="none" xmlns="http://www.w3.org/2000/svg">
<g clip-path="url(#clip0_1_26)">
<path d="M19.874 18.2763L19.9312 18.29H19.9474C20.8604 18.536 21.53 19.3661 21.53 20.36V22.52C21.53 22.6638 21.4139 22.78 21.27 22.78H9.77001C9.62615 22.78 9.51001 22.6638 9.51001 22.52V20.36C9.51001 19.3464 10.2065 18.5031 11.1473 18.276C12.1011 18.0458 12.9698 17.5739 13.6643 16.9125C14.2603 16.3475 14.2298 15.4149 13.6756 14.8585C13.2328 14.4061 12.8529 13.8688 12.6118 13.2882L12.5153 13.0559L12.2713 12.9949C12.1537 12.9655 12.0059 12.8897 11.8944 12.7837C11.7836 12.6785 11.75 12.5861 11.75 12.52C11.75 12.1559 11.934 12.0109 11.975 11.9985L12.3139 11.8958L12.3295 11.542C12.3724 10.5703 12.5903 9.75134 13.056 9.18134C13.5037 8.63339 14.2432 8.23999 15.51 8.23999C16.7775 8.23999 17.5142 8.63134 17.9603 9.17751C18.4248 9.74631 18.6429 10.5655 18.6906 11.5444L18.7078 11.8963L19.045 11.9985C19.0577 12.0023 19.113 12.0287 19.1721 12.1298C19.2288 12.2268 19.27 12.364 19.27 12.52C19.27 12.5781 19.2393 12.6683 19.1256 12.7762C19.0124 12.8838 18.8609 12.9639 18.7374 12.9979L18.5019 13.0626L18.4083 13.2882C18.1657 13.872 17.7847 14.4182 17.3465 14.8564C16.7908 15.4121 16.7591 16.3452 17.3541 16.9111C18.0406 17.5748 18.9108 18.0465 19.874 18.2763Z" fill="#D7E1FC" stroke="#D7E1FC"/>
<mask id="path-2-inside-1_1_26" fill="white">
<path d="M15.5 30.61C7.17002 30.61 0.390015 23.83 0.390015 15.5C0.390015 7.17002 7.17002 0.390015 15.5 0.390015C23.83 0.390015 30.61 7.17002 30.61 15.5C30.61 23.83 23.83 30.61 15.5 30.61ZM15.5 1.39001C7.72001 1.39001 1.39001 7.72001 1.39001 15.5C1.39001 23.28 7.72001 29.61 15.5 29.61C23.28 29.61 29.61 23.28 29.61 15.5C29.61 7.72001 23.28 1.39001 15.5 1.39001Z"/>
</mask>
<path d="M15.5 30.61C7.17002 30.61 0.390015 23.83 0.390015 15.5C0.390015 7.17002 7.17002 0.390015 15.5 0.390015C23.83 0.390015 30.61 7.17002 30.61 15.5C30.61 23.83 23.83 30.61 15.5 30.61ZM15.5 1.39001C7.72001 1.39001 1.39001 7.72001 1.39001 15.5C1.39001 23.28 7.72001 29.61 15.5 29.61C23.28 29.61 29.61 23.28 29.61 15.5C29.61 7.72001 23.28 1.39001 15.5 1.39001Z" fill="#D7E1FC"/>
<path d="M15.5 29.61C7.7223 29.61 1.39001 23.2777 1.39001 15.5H-0.609985C-0.609985 24.3823 6.61773 31.61 15.5 31.61V29.61ZM1.39001 15.5C1.39001 7.7223 7.7223 1.39001 15.5 1.39001V-0.609985C6.61773 -0.609985 -0.609985 6.61773 -0.609985 15.5H1.39001ZM15.5 1.39001C23.2777 1.39001 29.61 7.7223 29.61 15.5H31.61C31.61 6.61773 24.3823 -0.609985 15.5 -0.609985V1.39001ZM29.61 15.5C29.61 23.2777 23.2777 29.61 15.5 29.61V31.61C24.3823 31.61 31.61 24.3823 31.61 15.5H29.61ZM15.5 0.390015C7.16773 0.390015 0.390015 7.16773 0.390015 15.5H2.39001C2.39001 8.2723 8.2723 2.39001 15.5 2.39001V0.390015ZM0.390015 15.5C0.390015 23.8323 7.16773 30.61 15.5 30.61V28.61C8.2723 28.61 2.39001 22.7277 2.39001 15.5H0.390015ZM15.5 30.61C23.8323 30.61 30.61 23.8323 30.61 15.5H28.61C28.61 22.7277 22.7277 28.61 15.5 28.61V30.61ZM30.61 15.5C30.61 7.16773 23.8323 0.390015 15.5 0.390015V2.39001C22.7277 2.39001 28.61 8.2723 28.61 15.5H30.61Z" fill="#D7E1FC" mask="url(#path-2-inside-1_1_26)"/>
</g>
<defs>
<clipPath id="clip0_1_26">
<rect width="30.22" height="30.22" fill="white" transform="translate(0.390015 0.390015)"/>
</clipPath>
</defs>
</svg>
